<?xml version="1.0" encoding="UTF-8" standalone="yes"?>
<svg version="1.2" width="500" height="500" baseProfile="tiny-ps" xmlns="http://www.w3.org/2000/svg">
  <title>bimi-svg-tiny-12-ps</title>
  <path d="M0 0 C165 0 330 0 500 0 C500 165 500 330 500 500 C335 500 170 500 0 500 C0 335 0 170 0 0 Z " fill="#0C0C1B" transform="translate(0,0)"/>
  <path d="M0 0 C10.68364815 -0.06963615 21.36724193 -0.12288036 32.05107117 -0.15543652 C37.0124821 -0.17106507 41.97373728 -0.19225192 46.93505859 -0.22631836 C51.72667971 -0.25901214 56.5181514 -0.27687414 61.30987549 -0.28463173 C63.13424022 -0.29015728 64.95859716 -0.30094727 66.78289795 -0.31719017 C69.34632786 -0.33909783 71.90914717 -0.3419614 74.47265625 -0.34057617 C75.22000534 -0.351362 75.96735443 -0.36214783 76.73735046 -0.3732605 C82.82976464 -0.33784175 88.23174036 0.92990814 93.21484375 4.65625 C93.78332031 5.2646875 94.35179687 5.873125 94.9375 6.5 C95.9275 7.55574219 95.9275 7.55574219 96.9375 8.6328125 C99.94998549 12.09032426 102.84371409 15.63556849 105.71484375 19.2109375 C107.90460801 21.88357285 110.17111198 24.44834878 112.5 27 C115.57653672 30.37460948 118.51118217 33.81815864 121.375 37.375 C125.05571847 41.92780507 128.92648648 46.23417411 132.91137695 50.5168457 C136.71385014 54.62760957 140.24263299 58.92266523 143.75390625 63.28515625 C146.0883059 66.10673495 148.51990598 68.80590712 151 71.5 C168.82939096 90.91484383 168.82939096 90.91484383 168.453125 101.9609375 C167.0759889 111.19724683 158.39844318 118.01515331 152.234375 124.51953125 C149.49575026 127.43071162 146.93540717 130.44011603 144.4375 133.5625 C141.1174776 137.71100505 137.62948833 141.62525296 134 145.5 C130.35111551 149.39576281 126.84301562 153.33334284 123.5 157.5 C120.15697048 161.66667448 116.64875887 165.60410036 113 169.5 C107.1566764 175.74210967 101.57390214 182.19842155 96.46484375 189.0625 C91.94840094 194.89990797 86.18702211 198.45692544 78.78881836 199.41650391 C74.99729477 199.53300249 71.2273909 199.48352824 67.4375 199.375 C65.99759044 199.35266107 64.55764493 199.33254832 63.11767578 199.31445312 C59.02299807 199.2556291 54.92966054 199.16218288 50.83575439 199.06433105 C45.51456572 198.9436162 40.19277274 198.85393521 34.87109375 198.7578125 C22.91332149 198.53642919 10.95659492 198.27727147 -1 198 C-1 196 -1 196 1.171875 193.7265625 C2.10515625 192.82679688 3.0384375 191.92703125 4 191 C10.17977655 184.46441813 16.04866174 177.78952041 21.6875 170.78125 C24.64110477 167.22894156 27.76782323 163.86137228 30.9140625 160.48046875 C33.90441358 157.24788253 36.73786329 153.93294134 39.5 150.5 C43.13499389 145.98222187 46.9671029 141.72181484 50.9140625 137.48046875 C53.90441358 134.24788253 56.73786329 130.93294134 59.5 127.5 C62.69944546 123.52354636 66.02722841 119.73473153 69.5 116 C73.14682244 112.05291139 76.75419004 108.08206381 80.25 104 C80.99765625 103.13375 81.7453125 102.2675 82.515625 101.375 C84.22758378 99.1870285 84.22758378 99.1870285 83.77050781 97.05688477 C82.89560527 94.72131636 81.89242966 93.49560243 80.15625 91.71484375 C79.57415771 91.10761475 78.99206543 90.50038574 78.39233398 89.87475586 C77.76786377 89.23546143 77.14339355 88.59616699 76.5 87.9375 C72.30879922 83.55615022 68.21752083 79.18548878 64.4375 74.4375 C59.90239896 68.75802767 54.96275942 63.50563477 49.99609375 58.20703125 C45.63009707 53.54808681 41.46824167 48.72929197 37.3359375 43.86328125 C31.26408844 36.72616045 25.0610701 29.75208847 18.6796875 22.890625 C0 2.74052478 0 2.74052478 0 0 Z " fill="#FCA800" transform="translate(115,65)"/>
  <path d="M0 0 C1.15689331 -0.00021904 1.15689331 -0.00021904 2.3371582 -0.0004425 C4.87478493 0.00025161 7.41233734 0.00802047 9.94995117 0.01586914 C11.71400411 0.0177351 13.47805757 0.01915816 15.24211121 0.02015686 C19.87646932 0.02396801 24.51079591 0.0337863 29.1451416 0.04486084 C33.87759983 0.05510513 38.61006317 0.05966094 43.3425293 0.06469727 C52.62183999 0.07540984 61.90112733 0.0924694 71.18041992 0.11352539 C69.27727758 4.19357614 66.57212859 7.31969705 63.61791992 10.67602539 C62.52055428 11.93816752 61.42420815 13.20119673 60.32885742 14.46508789 C59.78970703 15.08673828 59.25055664 15.70838867 58.69506836 16.34887695 C56.66553721 18.71339197 54.700961 21.12713068 52.74291992 23.55102539 C48.64256078 28.60047309 44.39672643 33.51125556 40.12695312 38.41699219 C33.23289319 46.34118744 26.42283004 54.33106346 19.80541992 62.48852539 C18.26422937 64.36391676 16.72251115 66.23887455 15.18041992 68.11352539 C14.68251953 68.73114746 14.18461914 69.34876953 13.67163086 69.98510742 C12.02435287 72.02117472 10.35431452 74.0368095 8.68041992 76.05102539 C8.17075684 76.69023926 7.66109375 77.32945312 7.13598633 77.98803711 C3.19011709 82.67507813 -0.94850757 85.29749331 -6.81958008 87.11352539 C-11.51280907 87.48600388 -13.41167835 87.10774171 -17.22583008 84.41430664 C-22.60650988 79.78924699 -27.06907338 74.56706933 -31.46020508 69.01586914 C-34.03276665 65.85127767 -36.7365045 62.85374261 -39.50708008 59.86352539 C-39.97339844 59.35490967 -40.4397168 58.84629395 -40.92016602 58.32226562 C-42.8635035 56.20588649 -44.81896718 54.11413829 -46.85083008 52.08227539 C-49.6880458 49.13799492 -50.7799636 47.41913823 -51.31176758 43.31665039 C-51.15514125 38.31149261 -48.74001047 35.94824598 -45.25708008 32.61352539 C-44.14051171 31.47878033 -43.02462193 30.34336714 -41.90942383 29.20727539 C-41.37043457 28.67102539 -40.83144531 28.13477539 -40.27612305 27.58227539 C-38.53717478 25.8287533 -36.91825016 23.99525177 -35.31958008 22.11352539 C-34.15533958 20.77807305 -32.98827997 19.44507691 -31.81958008 18.11352539 C-31.37614258 17.60756836 -30.93270508 17.10161133 -30.47583008 16.58032227 C-28.93412955 14.83185722 -27.37814078 13.09696775 -25.81958008 11.36352539 C-25.33295898 10.80793945 -24.84633789 10.25235352 -24.3449707 9.67993164 C-17.33325471 1.94738503 -10.29230469 -0.0513418 0 0 Z " fill="#FDA800" transform="translate(309.819580078125,62.886474609375)"/>
  <path d="M0 0 C9.05404452 5.1245892 15.28176131 14.57419974 21.703125 22.51171875 C23.88814069 25.15194604 26.14483891 27.69776595 28.453125 30.23046875 C32.31894146 34.47751625 35.96681753 38.8631578 39.58203125 43.32421875 C45.44500038 50.51046098 51.49651903 57.54179624 57.54467773 64.57226562 C73.953125 83.65319204 73.953125 83.65319204 73.953125 85.23046875 C63.43447932 85.34666573 52.91598803 85.43533735 42.39682961 85.48952961 C37.5115544 85.51554824 32.6267205 85.55080388 27.74169922 85.60766602 C23.02136311 85.66226312 18.30144965 85.69194737 13.58082199 85.70485497 C11.78597746 85.71404538 9.99115429 85.73199172 8.19649124 85.75911903 C-3.78293552 85.93288183 -12.79205387 85.49907779 -21.83984375 76.7421875 C-22.98670778 75.48124352 -24.11816499 74.20612714 -25.234375 72.91796875 C-25.83531982 72.24934814 -26.43626465 71.58072754 -27.05541992 70.8918457 C-28.73443585 69.0174733 -30.3934745 67.12742662 -32.046875 65.23046875 C-32.75070312 64.43640625 -33.45453125 63.64234375 -34.1796875 62.82421875 C-35.25598973 61.60274087 -36.32565673 60.37536469 -37.38671875 59.140625 C-40.2742167 55.81830383 -43.25823462 52.58209873 -46.2265625 49.33203125 C-48.35781769 46.87148341 -48.97531714 45.71747905 -49.44921875 42.4921875 C-48.9059032 38.08763907 -46.64757497 36.02289064 -43.609375 33.04296875 C-42.49223838 31.89440499 -41.37767828 30.74332996 -40.265625 29.58984375 C-39.71390625 29.02201172 -39.1621875 28.45417969 -38.59375 27.86914062 C-36.46437022 25.61339614 -34.53600527 23.22282334 -32.609375 20.79296875 C-28.96814447 16.27144072 -25.15914187 11.94281935 -21.234375 7.66796875 C-20.68273682 7.05961182 -20.13109863 6.45125488 -19.56274414 5.82446289 C-13.98824705 -0.18611403 -8.23160193 -3.09470531 0 0 Z " fill="#FDA900" transform="translate(307.046875,178.76953125)"/>
  <path d="M0 0 C3.85390817 -0.11693501 7.70735512 -0.1874962 11.5625 -0.25 C12.64853516 -0.28351563 13.73457031 -0.31703125 14.85351562 -0.3515625 C21.54153752 -0.43287584 25.65923604 -0.14567519 31 4 C33.12639071 6.08614032 35.00958841 8.30493162 36.875 10.625 C37.91948802 11.8850147 38.96506856 13.14412452 40.01171875 14.40234375 C40.51880371 15.01706543 41.02588867 15.63178711 41.54833984 16.26513672 C43.52974836 18.63309651 45.60151785 20.911551 47.6875 23.1875 C51.53851005 27.42708043 55.14843955 31.82932112 58.75 36.28125 C61.64475711 39.77908151 64.69589539 43.11785404 67.75390625 46.47265625 C70.84575997 49.95166382 73.74591428 53.57271292 76.65234375 57.20703125 C79.13625976 60.16210603 81.79807517 62.86926728 84.5 65.625 C88.011107 69.49326186 90.56813384 72.45315063 90.55859375 77.82421875 C89.37200518 82.44610568 86.18681134 85.58803351 83 89 C81.5415541 90.62489897 80.08322394 92.24990184 78.625 93.875 C77.86058594 94.71289062 77.09617187 95.55078125 76.30859375 96.4140625 C73.23683388 99.85484936 70.35040183 103.43091711 67.44921875 107.015625 C64.68189402 110.38761239 61.84856535 113.6966857 59 117 C55.46385091 121.10226498 51.97136492 125.22802093 48.5625 129.4375 C47.0419818 131.2919251 45.52111483 133.14606426 44 135 C43.5035498 135.61617187 43.00709961 136.23234375 42.49560547 136.8671875 C40.84696967 138.90481612 39.17543472 140.92187549 37.5 142.9375 C36.99025635 143.57679443 36.4805127 144.21608887 35.95532227 144.87475586 C31.32210955 150.37838458 26.3854459 153.53835451 19.12646484 154.30249023 C16.05201202 154.39172303 13.01137107 154.35084624 9.9375 154.25 C8.88111328 154.23195312 7.82472656 154.21390625 6.73632812 154.1953125 C4.1565745 154.14862013 1.57879183 154.08315588 -1 154 C0.77499851 150.19874286 3.19037301 147.45049425 6.0625 144.4375 C9.68986992 140.56324103 13.17546573 136.64214125 16.5 132.5 C19.69931722 128.52370574 23.02584945 124.73331702 26.5 121 C30.7895776 116.38998361 34.80410897 111.62216764 38.75390625 106.71484375 C41.0883059 103.89326505 43.51990598 101.19409288 46 98.5 C46.82242188 97.59378906 47.64484375 96.68757813 48.4921875 95.75390625 C50.18821257 93.89144881 51.90239403 92.0453903 53.6328125 90.21484375 C58.26951358 85.04761104 61.03226825 81.48170361 60.70703125 74.38671875 C58.95493121 68.47217112 54.29572407 63.82436943 50.3125 59.25 C49.78358154 58.63729248 49.25466309 58.02458496 48.7097168 57.39331055 C45.62055919 53.82624127 42.48624062 50.30473219 39.3125 46.8125 C36.30185521 43.4991692 33.43434822 40.11058071 30.625 36.625 C27.38048594 32.61175091 24.01266903 28.7757082 20.5 25 C16.14066041 20.31285629 12.03011289 15.4775099 8.015625 10.48828125 C6.19742748 8.24372345 4.33533938 6.05219424 2.4375 3.875 C0 1 0 1 0 0 Z " fill="#1D1C29" transform="translate(165,87)"/>
  <path d="M0 0 C6.93 0 13.86 0 21 0 C22.71218371 4.23459722 24.42225063 8.4699229 26.12695312 12.70751953 C26.70774363 14.14942616 27.28977 15.59083563 27.87304688 17.03173828 C28.71027311 19.10059835 29.54306709 21.17119419 30.375 23.2421875 C30.63748535 23.88807831 30.8999707 24.53396912 31.17041016 25.19943237 C33 29.77225659 33 29.77225659 33 32 C33.66 32 34.32 32 35 32 C35.11859375 31.13415283 35.2371875 30.26830566 35.359375 29.3762207 C35.99857118 26.00753015 36.96890663 23.15558367 38.25 19.98046875 C38.91515625 18.3243457 38.91515625 18.3243457 39.59375 16.63476562 C40.0578125 15.49716797 40.521875 14.35957031 41 13.1875 C41.4640625 12.03056641 41.928125 10.87363281 42.40625 9.68164062 C45.85498768 1.14501232 45.85498768 1.14501232 47 0 C53.6 0 60.2 0 67 0 C67 18.15 67 36.3 67 55 C62.71 55 58.42 55 54 55 C53.67 42.13 53.34 29.26 53 16 C46.77421047 31.41461797 46.77421047 31.41461797 41 47 C36.38 47 31.76 47 27 47 C25.17943059 42.79499454 23.36831724 38.58633588 21.5625 34.375 C21.04623047 33.18519531 20.52996094 31.99539063 19.99804688 30.76953125 C19.50498047 29.61582031 19.01191406 28.46210938 18.50390625 27.2734375 C18.04830322 26.21560059 17.5927002 25.15776367 17.12329102 24.06787109 C16.01083779 21.02959959 15.42162682 18.20100757 15 15 C14.34 15 13.68 15 13 15 C13 28.2 13 41.4 13 55 C8.71 55 4.42 55 0 55 C0 36.85 0 18.7 0 0 Z " fill="#FBFBFC" transform="translate(337,293)"/>
  <path d="M0 0 C10.085625 -0.309375 10.085625 -0.309375 20.375 -0.625 C23.52748291 -0.76156006 23.52748291 -0.76156006 26.74365234 -0.90087891 C42.01968335 -1.29250321 42.01968335 -1.29250321 48.29296875 4.45703125 C52.13416515 9.32105184 53.4356145 13.19355657 52.9375 19.3125 C52.93427734 20.08400391 52.93105469 20.85550781 52.92773438 21.65039062 C52.76413013 25.88592269 52.35062082 27.57992713 49.5546875 30.9296875 C48.29011719 31.95449219 48.29011719 31.95449219 47 33 C46.401875 33.598125 45.80375 34.19625 45.1875 34.8125 C44.795625 35.204375 44.40375 35.59625 44 36 C45.94341529 40.24999404 48.72924834 43.7547422 51.5390625 47.46484375 C53.15369347 50.26670337 53.30681236 51.82392391 53 55 C48.43190264 55.83772318 44.53979291 56.08875121 40 55 C35.66504073 51.59966066 32.84562439 46.63496224 30 42 C29.34 41.01 28.68 40.02 28 39 C24.65386488 38.41312216 24.65386488 38.41312216 20.875 38.3125 C18.60625 38.209375 16.3375 38.10625 14 38 C14 43.61 14 49.22 14 55 C9.38 55 4.76 55 0 55 C0 36.85 0 18.7 0 0 Z " fill="#FAFAFA" transform="translate(209,293)"/>
  <path d="M0 0 C15.84 0 31.68 0 48 0 C48 3.63 48 7.26 48 11 C36.78 11 25.56 11 14 11 C14 14.96 14 18.92 14 23 C22.58 23 31.16 23 40 23 C40 26.3 40 29.6 40 33 C31.42 33 22.84 33 14 33 C14 36.63 14 40.26 14 44 C25.55 44 37.1 44 49 44 C49 47.63 49 51.26 49 55 C32.83 55 16.66 55 0 55 C0 36.85 0 18.7 0 0 Z " fill="#FCFCFC" transform="translate(421,293)"/>
  <path d="M0 0 C15.84 0 31.68 0 48 0 C48 3.63 48 7.26 48 11 C36.78 11 25.56 11 14 11 C14 14.96 14 18.92 14 23 C22.58 23 31.16 23 40 23 C40 26.3 40 29.6 40 33 C31.42 33 22.84 33 14 33 C14 36.63 14 40.26 14 44 C25.55 44 37.1 44 49 44 C49 47.63 49 51.26 49 55 C32.83 55 16.66 55 0 55 C0 36.85 0 18.7 0 0 Z " fill="#FCFCFC" transform="translate(276,293)"/>
  <path d="M0 0 C15.84 0 31.68 0 48 0 C48 3.63 48 7.26 48 11 C36.78 11 25.56 11 14 11 C14 14.96 14 18.92 14 23 C22.58 23 31.16 23 40 23 C40 26.3 40 29.6 40 33 C31.42 33 22.84 33 14 33 C14 36.63 14 40.26 14 44 C25.55 44 37.1 44 49 44 C49 47.63 49 51.26 49 55 C32.83 55 16.66 55 0 55 C0 36.85 0 18.7 0 0 Z " fill="#FCFCFC" transform="translate(30,293)"/>
  <path d="M0 0 C4.70353734 -1.00193695 9.4241227 -1.78297441 14 0 C18.5930898 3.94703154 21.77897383 9.27966207 24.89355469 14.41772461 C25.92574809 16.16150371 25.92574809 16.16150371 28 17 C28.25265625 16.47921875 28.5053125 15.9584375 28.765625 15.421875 C31.68101157 9.70181274 34.3442337 4.47791983 39 0 C43.85122727 -1.10929011 48.11620666 -0.81280771 53 0 C52.45169398 3.99235319 51.32842037 6.32745574 48.875 9.50390625 C48.25109375 10.32697266 47.6271875 11.15003906 46.984375 11.99804688 C46.32953125 12.84431641 45.6746875 13.69058594 45 14.5625 C43.70256129 16.24687171 42.41064742 17.93551735 41.125 19.62890625 C40.26261719 20.7437439 40.26261719 20.7437439 39.3828125 21.88110352 C37.9617715 24.05857789 37.16447255 25.40381998 37 28 C38.10119641 30.14369919 38.10119641 30.14369919 39.859375 32.1875 C40.48070312 32.96867187 41.10203125 33.74984375 41.7421875 34.5546875 C42.40476563 35.36164063 43.06734375 36.16859375 43.75 37 C44.39710938 37.80695313 45.04421875 38.61390625 45.7109375 39.4453125 C46.92085338 40.95397304 48.13612531 42.4583647 49.35839844 43.95703125 C49.90012695 44.63121094 50.44185547 45.30539062 51 46 C51.56106445 46.68964844 52.12212891 47.37929688 52.70019531 48.08984375 C54.35159912 50.51670014 54.23951147 52.12586237 54 55 C49.29255062 56.06544342 44.56365689 56.89430456 40 55 C35.38886295 50.74936317 32.27195589 45.09645939 29.2199707 39.67407227 C28.01711923 37.68323128 28.01711923 37.68323128 25 37 C24.64172119 37.50974365 24.28344238 38.0194873 23.91430664 38.54467773 C22.29805514 40.84300259 20.68029803 43.14026352 19.0625 45.4375 C18.49853516 46.23994141 17.93457031 47.04238281 17.35351562 47.86914062 C16.81533203 48.63291016 16.27714844 49.39667969 15.72265625 50.18359375 C15.22515869 50.89056396 14.72766113 51.59753418 14.21508789 52.32592773 C13 54 13 54 12 55 C9.81360547 55.07258946 7.62499611 55.08373783 5.4375 55.0625 C3.64119141 55.04896484 3.64119141 55.04896484 1.80859375 55.03515625 C0.88175781 55.02355469 -0.04507813 55.01195312 -1 55 C-1.34677752 50.81164222 -0.66735511 48.96374687 1.95703125 45.71484375 C2.57513672 44.93689453 3.19324219 44.15894531 3.83007812 43.35742188 C4.48427734 42.55884766 5.13847656 41.76027344 5.8125 40.9375 C6.45509766 40.13505859 7.09769531 39.33261719 7.75976562 38.50585938 C8.95896689 37.00841116 10.16325535 35.51501231 11.37426758 34.02709961 C11.91075928 33.35815674 12.44725098 32.68921387 13 32 C13.58483154 31.33685791 14.16966309 30.67371582 14.7722168 29.99047852 C16.19191958 28.11072878 16.19191958 28.11072878 15.89868164 26.0390625 C14.77859768 23.49764951 13.34017849 21.55835985 11.62109375 19.375 C10.94755859 18.50359375 10.27402344 17.6321875 9.58007812 16.734375 C8.15020545 14.90956029 6.71790624 13.08664437 5.28320312 11.265625 C4.61095703 10.39421875 3.93871094 9.5228125 3.24609375 8.625 C2.62404053 7.83351563 2.0019873 7.04203125 1.36108398 6.2265625 C0 4 0 4 0 0 Z " fill="#F9F9FA" transform="translate(87,293)"/>
  <path d="M0 0 C17.82 0 35.64 0 54 0 C54 3.63 54 7.26 54 11 C47.4 11 40.8 11 34 11 C34 25.52 34 40.04 34 55 C29.38 55 24.76 55 20 55 C20 40.48 20 25.96 20 11 C13.4 11 6.8 11 0 11 C0 7.37 0 3.74 0 0 Z " fill="#F9F9FA" transform="translate(145,293)"/>
  <path d="M0 0 C0.8765625 -0.02320313 1.753125 -0.04640625 2.65625 -0.0703125 C6.99369167 -0.03111875 10.19081946 0.31792417 13.578125 3.171875 C17.02596457 7.26405694 16.88607795 11.60927735 16.75 16.75 C16.77320313 17.6265625 16.79640625 18.503125 16.8203125 19.40625 C16.78111875 23.74369167 16.43207583 26.94081946 13.578125 30.328125 C9.48594306 33.77596457 5.14072265 33.63607795 0 33.5 C-1.31484375 33.53480469 -1.31484375 33.53480469 -2.65625 33.5703125 C-6.99369167 33.53111875 -10.19081946 33.18207583 -13.578125 30.328125 C-17.02596457 26.23594306 -16.88607795 21.89072265 -16.75 16.75 C-16.77320313 15.8734375 -16.79640625 14.996875 -16.8203125 14.09375 C-16.78111875 9.75630833 -16.43207583 6.55918054 -13.578125 3.171875 C-9.48594306 -0.27596457 -5.14072265 -0.13607795 0 0 Z " fill="#F9A300" transform="translate(150,358.25)"/>
  <path d="M0 0 C5.7853125 -0.1546875 5.7853125 -0.1546875 11.6875 -0.3125 C13.4986731 -0.38078003 13.4986731 -0.38078003 15.34643555 -0.45043945 C23.17926412 -0.55211339 23.17926412 -0.55211339 27.234375 2.17578125 C30.08503223 6.73557147 29.88143808 10.79717522 29 16 C27 19.1875 27 19.1875 25 21 C25.3609375 21.54269531 25.721875 22.08539063 26.09375 22.64453125 C26.5578125 23.35996094 27.021875 24.07539063 27.5 24.8125 C27.9640625 25.52019531 28.428125 26.22789062 28.90625 26.95703125 C30 29 30 29 30 32 C26.9375 32.625 26.9375 32.625 23 32 C21.29296875 29.80859375 21.29296875 29.80859375 19.625 27.0625 C17.33698247 23.20133994 17.33698247 23.20133994 13.55859375 21.11328125 C10.80587106 20.79777397 10.80587106 20.79777397 7 21 C7 24.63 7 28.26 7 32 C4.69 32 2.38 32 0 32 C0 21.44 0 10.88 0 0 Z " fill="#F9A300" transform="translate(335,359)"/>
  <path d="M0 0 C5.7853125 -0.1546875 5.7853125 -0.1546875 11.6875 -0.3125 C13.4986731 -0.38078003 13.4986731 -0.38078003 15.34643555 -0.45043945 C23.17926412 -0.55211339 23.17926412 -0.55211339 27.234375 2.17578125 C30.08503223 6.73557147 29.88143808 10.79717522 29 16 C27 19.1875 27 19.1875 25 21 C25.3609375 21.54269531 25.721875 22.08539063 26.09375 22.64453125 C26.5578125 23.35996094 27.021875 24.07539063 27.5 24.8125 C27.9640625 25.52019531 28.428125 26.22789062 28.90625 26.95703125 C30 29 30 29 30 32 C26.9375 32.625 26.9375 32.625 23 32 C21.29296875 29.80859375 21.29296875 29.80859375 19.625 27.0625 C17.33698247 23.20133994 17.33698247 23.20133994 13.55859375 21.11328125 C10.80587106 20.79777397 10.80587106 20.79777397 7 21 C7 24.63 7 28.26 7 32 C4.69 32 2.38 32 0 32 C0 21.44 0 10.88 0 0 Z " fill="#F9A300" transform="translate(174,359)"/>
  <path d="M0 0 C3.856875 -0.12375 7.71375 -0.2475 11.6875 -0.375 C12.89494873 -0.42962402 14.10239746 -0.48424805 15.34643555 -0.54052734 C22.94962905 -0.65895913 22.94962905 -0.65895913 25.86328125 1.16894531 C28.70663506 4.31085127 29.68471549 7.34380218 29.625 11.5 C29.63789063 12.3971875 29.65078125 13.294375 29.6640625 14.21875 C28.75530761 18.02482928 27.17816793 20.74093408 24 23 C21.01961779 23.70442757 18.22841567 23.5738193 15.1875 23.375 C14.00510742 23.33439453 14.00510742 23.33439453 12.79882812 23.29296875 C10.86469843 23.22263676 8.93198696 23.11502458 7 23 C7 25.97 7 28.94 7 32 C4.69 32 2.38 32 0 32 C0 21.44 0 10.88 0 0 Z " fill="#FAA400" transform="translate(264,359)"/>
  <path d="M0 0 C3.3 0 6.6 0 10 0 C13.5704663 7.54234598 17.10397448 15.09938583 20.4375 22.75 C20.93121094 23.87921875 21.42492187 25.0084375 21.93359375 26.171875 C23 29 23 29 23 32 C20.69 32 18.38 32 16 32 C15.67386719 31.02804687 15.34773438 30.05609375 15.01171875 29.0546875 C13.24089692 25.58680702 13.24089692 25.58680702 9.20703125 25.1953125 C7.74295894 25.14231441 6.2775223 25.11988202 4.8125 25.125 C4.06291016 25.104375 3.31332031 25.08375 2.54101562 25.0625 C0.69449213 25.01545482 -1.15288219 25.00425113 -3 25 C-3.309375 25.969375 -3.61875 26.93875 -3.9375 27.9375 C-5 31 -5 31 -6 32 C-7.99958364 32.04080783 -10.00045254 32.04254356 -12 32 C-11.42275023 27.76003769 -10.41778173 24.17028711 -8.75 20.234375 C-8.3065625 19.17992187 -7.863125 18.12546875 -7.40625 17.0390625 C-6.9421875 15.95367187 -6.478125 14.86828125 -6 13.75 C-5.5359375 12.64914062 -5.071875 11.54828125 -4.59375 10.4140625 C-1.24503968 2.49007937 -1.24503968 2.49007937 0 0 Z " fill="#F7A200" transform="translate(306,359)"/>
  <path d="M0 0 C1.61165039 0.03383789 1.61165039 0.03383789 3.25585938 0.06835938 C5.9011685 0.12714402 8.54361413 0.20926043 11.1875 0.3125 C11.1875 2.2925 11.1875 4.2725 11.1875 6.3125 C0.7925 6.8075 0.7925 6.8075 -9.8125 7.3125 C-9.1525 8.9625 -8.4925 10.6125 -7.8125 12.3125 C-6.71550781 12.32667969 -5.61851562 12.34085937 -4.48828125 12.35546875 C-3.03381302 12.40238708 -1.57938723 12.45063438 -0.125 12.5 C0.59623047 12.50580078 1.31746094 12.51160156 2.06054688 12.51757812 C6.1290894 12.6847785 7.82236112 13.03445846 11.16796875 15.58203125 C13.20407948 18.33491597 13.87156636 19.4575306 13.8125 22.8125 C13.82539063 23.5446875 13.83828125 24.276875 13.8515625 25.03125 C12.75679713 28.79209103 11.42795418 30.06730019 8.1875 32.3125 C4.06629768 32.92447736 0.0295506 32.78282922 -4.125 32.625 C-5.24712891 32.60244141 -6.36925781 32.57988281 -7.52539062 32.55664062 C-10.28912536 32.49783776 -13.05012554 32.41570401 -15.8125 32.3125 C-15.8125 30.3325 -15.8125 28.3525 -15.8125 26.3125 C-5.9125 25.8175 -5.9125 25.8175 4.1875 25.3125 C4.1875 23.6625 4.1875 22.0125 4.1875 20.3125 C3.09050781 20.29832031 1.99351562 20.28414063 0.86328125 20.26953125 C-0.59118698 20.22261292 -2.04561277 20.17436562 -3.5 20.125 C-4.22123047 20.11919922 -4.94246094 20.11339844 -5.68554688 20.10742188 C-9.7540894 19.9402215 -11.44736112 19.59054154 -14.79296875 17.04296875 C-16.82907948 14.29008403 -17.49656636 13.1674694 -17.4375 9.8125 C-17.45039063 9.0803125 -17.46328125 8.348125 -17.4765625 7.59375 C-14.91619495 -1.20186559 -7.56875278 -0.30053081 0 0 Z " fill="#F7A200" transform="translate(418.8125,358.6875)"/>
  <path d="M0 0 C1.61165039 0.03383789 1.61165039 0.03383789 3.25585938 0.06835938 C5.9011685 0.12714402 8.54361413 0.20926043 11.1875 0.3125 C11.1875 2.2925 11.1875 4.2725 11.1875 6.3125 C0.7925 6.8075 0.7925 6.8075 -9.8125 7.3125 C-9.1525 8.9625 -8.4925 10.6125 -7.8125 12.3125 C-6.71550781 12.32667969 -5.61851563 12.34085937 -4.48828125 12.35546875 C-3.03381302 12.40238708 -1.57938723 12.45063438 -0.125 12.5 C0.59623047 12.50580078 1.31746094 12.51160156 2.06054688 12.51757812 C6.1290894 12.6847785 7.82236112 13.03445846 11.16796875 15.58203125 C13.20407948 18.33491597 13.87156636 19.4575306 13.8125 22.8125 C13.82539062 23.5446875 13.83828125 24.276875 13.8515625 25.03125 C12.75679713 28.79209103 11.42795418 30.06730019 8.1875 32.3125 C4.06629768 32.92447736 0.0295506 32.78282922 -4.125 32.625 C-5.24712891 32.60244141 -6.36925781 32.57988281 -7.52539062 32.55664062 C-10.28912536 32.49783776 -13.05012554 32.41570401 -15.8125 32.3125 C-15.8125 30.3325 -15.8125 28.3525 -15.8125 26.3125 C-5.9125 25.8175 -5.9125 25.8175 4.1875 25.3125 C4.1875 23.6625 4.1875 22.0125 4.1875 20.3125 C3.09050781 20.29832031 1.99351563 20.28414063 0.86328125 20.26953125 C-0.59118698 20.22261292 -2.04561277 20.17436562 -3.5 20.125 C-4.22123047 20.11919922 -4.94246094 20.11339844 -5.68554688 20.10742188 C-9.7540894 19.9402215 -11.44736112 19.59054154 -14.79296875 17.04296875 C-16.82907948 14.29008403 -17.49656636 13.1674694 -17.4375 9.8125 C-17.45039062 9.0803125 -17.46328125 8.348125 -17.4765625 7.59375 C-14.91619495 -1.20186559 -7.56875278 -0.30053081 0 0 Z " fill="#F7A200" transform="translate(83.8125,358.6875)"/>
  <path d="M0 0 C9.24 0 18.48 0 28 0 C28 1.98 28 3.96 28 6 C21.07 6 14.14 6 7 6 C7 8.31 7 10.62 7 13 C12.28 13 17.56 13 23 13 C23 14.98 23 16.96 23 19 C17.72 19 12.44 19 7 19 C7 21.31 7 23.62 7 26 C13.93 26 20.86 26 28 26 C28 27.98 28 29.96 28 32 C18.76 32 9.52 32 0 32 C0 21.44 0 10.88 0 0 Z " fill="#FAA400" transform="translate(212,359)"/>
  <path d="M0 0 C3.43796837 -0.08078777 6.87404727 -0.14039791 10.3125 -0.1875 C11.28896484 -0.21263672 12.26542969 -0.23777344 13.27148438 -0.26367188 C14.20927734 -0.27333984 15.14707031 -0.28300781 16.11328125 -0.29296875 C16.97735596 -0.3086792 17.84143066 -0.32438965 18.73168945 -0.34057617 C21.48832045 0.07331902 22.34861516 0.79253322 24 3 C24.3984375 5.375 24.3984375 5.375 24.375 8 C24.38273437 8.86625 24.39046875 9.7325 24.3984375 10.625 C23.9138926 13.51326763 23.29765373 14.23225901 21 16 C18.73168945 16.34057617 18.73168945 16.34057617 16.11328125 16.29296875 C15.17548828 16.28330078 14.23769531 16.27363281 13.27148438 16.26367188 C11.80678711 16.2259668 11.80678711 16.2259668 10.3125 16.1875 C9.32443359 16.17396484 8.33636719 16.16042969 7.31835938 16.14648438 C4.87867383 16.11112661 2.43926837 16.05731962 0 16 C0 10.72 0 5.44 0 0 Z " fill="#181928" transform="translate(223,304)"/>
  <path d="M0 0 C10.23 0 20.46 0 31 0 C31 1.98 31 3.96 31 6 C27.04 6 23.08 6 19 6 C19 14.58 19 23.16 19 32 C16.69 32 14.38 32 12 32 C12 23.42 12 14.84 12 6 C8.04 6 4.08 6 0 6 C0 4.02 0 2.04 0 0 Z " fill="#F7A300" transform="translate(368,359)"/>
  <path d="M0 0 C10.23 0 20.46 0 31 0 C31 1.98 31 3.96 31 6 C27.04 6 23.08 6 19 6 C19 14.58 19 23.16 19 32 C16.69 32 14.38 32 12 32 C12 23.42 12 14.84 12 6 C8.04 6 4.08 6 0 6 C0 4.02 0 2.04 0 0 Z " fill="#F7A300" transform="translate(99,359)"/>
  <path d="M0 0 C1.15628906 0.00386719 2.31257812 0.00773437 3.50390625 0.01171875 C6.4375 0.3125 6.4375 0.3125 8.4375 2.3125 C8.63602102 5.02172801 8.71589477 7.60553179 8.6875 10.3125 C8.69523437 11.04984375 8.70296875 11.7871875 8.7109375 12.546875 C8.6908196 18.0591804 8.6908196 18.0591804 6.4375 20.3125 C3.50390625 20.61328125 3.50390625 20.61328125 0 20.625 C-1.73056641 20.65013672 -1.73056641 20.65013672 -3.49609375 20.67578125 C-6.5625 20.3125 -6.5625 20.3125 -8.44921875 19.23046875 C-10.1629559 16.27803035 -9.958624 13.69233977 -9.9375 10.3125 C-9.94523438 9.075 -9.95296875 7.8375 -9.9609375 6.5625 C-9.5625 3.3125 -9.5625 3.3125 -8.44921875 1.39453125 C-5.62040794 -0.22778882 -3.23190633 -0.04694389 0 0 Z " fill="#0E0D1C" transform="translate(150.5625,364.6875)"/>
  <path d="M0 0 C2.12472576 -0.05386629 4.24983652 -0.09273071 6.375 -0.125 C7.55835938 -0.14820313 8.74171875 -0.17140625 9.9609375 -0.1953125 C13 0 13 0 15 2 C15.25 5.5 15.25 5.5 15 9 C13 11 13 11 9.9609375 11.1953125 C8.77757812 11.17210937 7.59421875 11.14890625 6.375 11.125 C5.18648438 11.10695313 3.99796875 11.08890625 2.7734375 11.0703125 C1.85820312 11.04710937 0.94296875 11.02390625 0 11 C0 7.37 0 3.74 0 0 Z " fill="#0F0F1E" transform="translate(271,365)"/>
  <path d="M0 0 C2.12472576 -0.05386629 4.24983652 -0.09273071 6.375 -0.125 C7.55835938 -0.14820313 8.74171875 -0.17140625 9.9609375 -0.1953125 C13 0 13 0 15 2 C15.25 4.5 15.25 4.5 15 7 C13 9 13 9 9.9609375 9.1953125 C8.77757812 9.17210937 7.59421875 9.14890625 6.375 9.125 C5.18648438 9.10695313 3.99796875 9.08890625 2.7734375 9.0703125 C1.85820312 9.04710937 0.94296875 9.02390625 0 9 C0 6.03 0 3.06 0 0 Z " fill="#0B0B1B" transform="translate(342,365)"/>
  <path d="M0 0 C2.12472576 -0.05386629 4.24983652 -0.09273071 6.375 -0.125 C7.55835938 -0.14820313 8.74171875 -0.17140625 9.9609375 -0.1953125 C13 0 13 0 15 2 C15.25 4.5 15.25 4.5 15 7 C13 9 13 9 9.9609375 9.1953125 C8.77757812 9.17210937 7.59421875 9.14890625 6.375 9.125 C5.18648437 9.10695313 3.99796875 9.08890625 2.7734375 9.0703125 C1.85820312 9.04710937 0.94296875 9.02390625 0 9 C0 6.03 0 3.06 0 0 Z " fill="#0F0F1E" transform="translate(181,365)"/>
  <path d="M0 0 C0.66 0 1.32 0 2 0 C3.65 4.29 5.3 8.58 7 13 C3.37 13 -0.26 13 -4 13 C-1.125 3.375 -1.125 3.375 0 0 Z " fill="#15111C" transform="translate(310,365)"/>
</svg>